<?xml version="1.0" encoding="UTF-8" standalone="no"?>
<!-- Created with Inkscape (http://www.inkscape.org/) -->

<svg
   width="8.4666672mm"
   height="8.4666672mm"
   viewBox="0 0 8.4666673 8.4666673"
   version="1.1"
   id="svg1"
   xmlns:xlink="http://www.w3.org/1999/xlink"
   xmlns="http://www.w3.org/2000/svg"
   xmlns:svg="http://www.w3.org/2000/svg">
  <defs
     id="defs1">
    <linearGradient
       id="linearGradient8">
      <stop
         style="stop-color:#a6ffff;stop-opacity:1;"
         offset="0.1542166"
         id="stop68" />
      <stop
         style="stop-color:#00ff37;stop-opacity:1;"
         offset="1"
         id="stop9" />
    </linearGradient>
    <linearGradient
       xlink:href="#linearGradient8"
       id="linearGradient10"
       x1="44.564098"
       y1="49.780327"
       x2="53.030766"
       y2="58.246994"
       gradientUnits="userSpaceOnUse" />
  </defs>
  <g
     id="layer1"
     transform="translate(-44.564098,-49.780327)">
    <path
       id="rect1"
       style="fill:url(#linearGradient10);fill-opacity:1;stroke:#ffffff;stroke-width:0.0263759;stroke-linecap:round;stroke-linejoin:round;stroke-dasharray:none"
       d="m 49.966702,50.297479 c 0,0 0.749437,0.94598 1.175185,1.371728 0.425747,0.425746 1.371727,1.175184 1.371727,1.175184 0.695693,0.596015 0.647774,1.690762 -10e-7,2.338538 0,0 -0.945979,0.749438 -1.371727,1.175185 -0.425747,0.425749 -1.175185,1.371728 -1.175185,1.371728 -0.596015,0.695694 -1.690763,0.647774 -2.338538,0 0,0 -0.749438,-0.945979 -1.175185,-1.371727 -0.425747,-0.425747 -1.371727,-1.175185 -1.371727,-1.175185 -0.695695,-0.596016 -0.647776,-1.690763 -1e-6,-2.338539 0,0 0.945981,-0.749438 1.371728,-1.175185 0.425747,-0.425747 1.175185,-1.371727 1.175185,-1.371727 0.596014,-0.695695 1.690762,-0.647775 2.338539,0 z" />
    <path
       d="m 49.860932,50.200456 v 3.63492 c 0,0.163179 0.0031,0.411122 0.0088,0.743107 0.01125,0.331984 0.02763,0.694426 0.05013,1.088306 h -0.02532 l -0.887284,-2.71508 h -0.100769 v 0.997355 h -0.245463 v -0.997355 h -0.33383 v -0.211873 h 0.610815 l -0.04237,-0.129191 c -0.0082,2.62e-4 -0.01613,5.17e-4 -0.02429,5.17e-4 -0.116313,0 -0.212695,-0.0243 -0.288355,-0.07286 -0.07453,-0.04969 -0.130166,-0.119046 -0.167431,-0.208256 -0.03613,-0.09034 -0.05426,-0.195527 -0.05426,-0.315227 0,-0.13438 0.02168,-0.249729 0.0646,-0.345715 0.02831,-0.06244 0.06495,-0.115396 0.110071,-0.159163 l -0.227893,-0.696599 h -1.099158 c -0.175947,0.212065 -0.381951,0.454147 -0.56379,0.653191 v 5.094262 c 0.426355,0.466696 0.982886,1.169438 0.982886,1.169438 0.03407,0.03407 0.07004,0.06589 0.106453,0.09663 v -3.991488 c 0,-0.168806 -0.009,-0.424674 -0.02584,-0.767912 -0.01126,-0.348865 -0.03078,-0.722905 -0.05891,-1.122412 h 0.03359 l 0.728637,2.247408 v -0.09767 h 0.323495 c 0.143414,0 0.252581,0.03227 0.327111,0.09663 0.07566,0.06437 0.113689,0.15363 0.113689,0.267684 0,0.08243 -0.01906,0.151373 -0.05633,0.206705 -0.03613,0.05421 -0.08559,0.09664 -0.148828,0.127124 l 0.296623,0.511597 h -0.260966 l -0.252698,-0.455786 h -0.09612 v 0.102836 l 0.483175,1.490865 h 0.03307 v 0.101286 l 0.09612,0.296623 h 1.431954 c 0.08411,-0.09734 0.168031,-0.19255 0.24753,-0.27957 V 51.466521 C 50.52342,50.999824 49.96689,50.297083 49.96689,50.297083 c -0.03407,-0.03407 -0.06953,-0.0659 -0.105937,-0.09663 z m -1.228348,1.605587 c -0.01487,0.05792 -0.02222,0.123906 -0.02222,0.198437 0,0.133251 0.02337,0.232256 0.0708,0.296623 0.03282,0.04376 0.08014,0.0723 0.141077,0.08578 z m 0.02532,2.497522 v 0.33693 h 0.07286 c 0.132122,0 0.197921,-0.05878 0.197921,-0.176217 0,-0.05985 -0.0177,-0.101862 -0.05271,-0.125573 -0.03388,-0.02371 -0.08376,-0.03514 -0.150379,-0.03514 z"
       style="font-weight:bold;font-size:32px;line-height:1.1;font-family:Monospace;-inkscape-font-specification:'Monospace Bold';text-align:center;letter-spacing:0px;word-spacing:0px;text-anchor:middle;white-space:pre;fill:#ffffff;stroke:#ffffff;stroke-width:0.0263759;stroke-linecap:round;stroke-linejoin:round"
       id="path67" />
    <path
       d="m 48.933857,51.367827 c -0.124216,0 -0.229403,0.02608 -0.315226,0.07803 -0.03024,0.01855 -0.05762,0.03977 -0.08268,0.06408 l 0.09663,0.296106 c 0.002,-0.0079 0.0044,-0.01567 0.0067,-0.02326 0.02033,-0.06324 0.05344,-0.112271 0.09974,-0.147278 0.0463,-0.03501 0.108117,-0.05271 0.186035,-0.05271 0.03275,0 0.0668,0.004 0.101803,0.01189 0.03614,0.0079 0.07501,0.02247 0.116788,0.04392 l 0.08165,-0.201538 c -0.0463,-0.02259 -0.09229,-0.03935 -0.137459,-0.05064 -0.04404,-0.01242 -0.09528,-0.0186 -0.153996,-0.0186 z m 0.243913,0.960664 c -0.05533,0.02484 -0.103948,0.04203 -0.145728,0.05219 -0.04065,0.01017 -0.08088,0.0155 -0.120406,0.0155 -0.0325,0 -0.06189,-0.0034 -0.08888,-0.0093 h -5.17e-4 l 0.07338,0.223759 c 0.04281,-0.0014 0.0861,-0.0065 0.129707,-0.01499 0.05307,-0.01017 0.103886,-0.02557 0.152446,-0.04703 z m -0.239779,0.411345 0.06925,0.211873 h 0.234611 v -0.211873 z m -0.526066,1.452624 v 1.112077 h 0.24598 v -0.35295 z m 0.01705,1.257805 v 1.209228 h 0.745175 v -0.115755 l -0.03307,-0.101286 h -0.466639 v -0.992187 z"
       style="fill:#ffffff"
       id="path68" />
  </g>
</svg>
